<svg width="57" height="57" viewBox="0 0 57 57" fill="none" xmlns="http://www.w3.org/2000/svg">
<path d="M29.125 16.875C29.125 10.32 23.2825 5 16.0625 5C8.8425 5 3 10.32 3 16.875H7.75L10.125 14.5L12.5 16.875H22" stroke="#41B313" stroke-width="4.75" stroke-linecap="round" stroke-linejoin="round"/>
<path d="M32.875 17.9575C35.2799 16.1795 38.1967 15.2294 41.1875 15.25C48.4075 15.25 54.25 20.57 54.25 27.125H47.125L44.75 24.75L42.375 27.125H35.25" stroke="#41B313" stroke-width="4.75" stroke-linecap="round" stroke-linejoin="round"/>
<path d="M26.125 36.8125C27.3125 42.75 25.7212 47.5 23.75 52.25H33.25C38 39.1875 32.0625 23.75 30.875 19" stroke="#95492E" stroke-width="4.75" stroke-linecap="round" stroke-linejoin="round"/>
<g clip-path="url(#clip0_1_4)">
<path d="M14.9436 31.9336C15.373 32.5077 15.9209 32.9827 16.5501 33.3265C17.1793 33.6703 17.8751 33.8747 18.5902 33.9259C19.3054 33.9771 20.0231 33.8739 20.6949 33.6233C21.3667 33.3728 21.9767 32.9806 22.4836 32.4736L25.4836 29.4736C26.3943 28.5305 26.8983 27.2675 26.8869 25.9566C26.8755 24.6456 26.3497 23.3915 25.4227 22.4645C24.4956 21.5374 23.2415 21.0116 21.9306 21.0002C20.6196 20.9888 19.3566 21.4928 18.4136 22.4036L16.6936 24.1136" stroke="#41B313" stroke-width="3" stroke-linecap="round" stroke-linejoin="round"/>
<path d="M18.9436 29.9336C18.5141 29.3594 17.9662 28.8844 17.337 28.5406C16.7078 28.1969 16.0121 27.9924 15.2969 27.9412C14.5818 27.89 13.864 27.9932 13.1922 28.2438C12.5205 28.4944 11.9104 28.8865 11.4036 29.3936L8.40356 32.3936C7.49277 33.3366 6.9888 34.5996 7.00019 35.9106C7.01158 37.2216 7.53743 38.4756 8.46447 39.4027C9.39151 40.3297 10.6456 40.8555 11.9566 40.8669C13.2675 40.8783 14.5305 40.3744 15.4736 39.4636L17.1836 37.7536" stroke="#41B313" stroke-width="3" stroke-linecap="round" stroke-linejoin="round"/>
</g>
<defs>
<clipPath id="clip0_1_4">
<rect width="24" height="24" fill="white" transform="translate(5 19)"/>
</clipPath>
</defs>
</svg>
